<?xml version="1.0" encoding="utf-8"?>
<!-- Generator: Adobe Illustrator 27.8.1, SVG Export Plug-In . SVG Version: 6.00 Build 0)  -->
<svg version="1.1" id="Capa_1" xmlns="http://www.w3.org/2000/svg" xmlns:xlink="http://www.w3.org/1999/xlink" x="0px" y="0px"
	 viewBox="0 0 270 43" style="enable-background:new 0 0 270 43;" xml:space="preserve">
<style type="text/css">
	.st0{fill:#FFFFFF;}
</style>
<g>
	<path class="st0" d="M37.9,23.5c0,8-6.8,11.3-19.1,11.3C5.6,34.8,0,30.5,0,23.2h10.1c0,3.7,4.7,4.8,9.4,4.8c5.1,0,8-1,8-3.3
		c0-2.8-4.1-2.6-13.3-4.2c-8.4-1.4-13.4-3.1-13.4-9.8C0.8,4,6.2,0,18.2,0c13.2,0,17.5,4.9,17.5,10.9H26c0-2.2-2.7-4.1-7.9-4.1
		c-5.7,0-7.9,1.2-7.9,3.3c0,2.8,5.1,3,10.8,3.7C29.5,14.9,37.9,15.1,37.9,23.5z"/>
	<path class="st0" d="M71.4,21.4c0,9.8-8.2,13.4-15.7,13.4S40,31.2,40,21.4C40,11.5,48.2,8,55.7,8S71.4,11.5,71.4,21.4z M63.2,21.4
		c0-4.1-2.3-7.5-7.5-7.5c-5.2,0-7.6,3.4-7.6,7.5c0,4.1,2.3,7.5,7.6,7.5C60.9,28.9,63.2,25.5,63.2,21.4z"/>
	<path class="st0" d="M103.2,8.7v25.4h-8.6v-3.6c-1,1.4-4.1,4.3-9.3,4.3c-6.5,0-10.6-3.5-10.6-9.3V8.7h8.6v14.9c0,2.8,1.8,5,5.6,5
		c3.8,0,5.8-2.1,5.8-5V8.7H103.2z"/>
	<path class="st0" d="M136.3,17.3v16.8h-8.6V19.2c0-2.8-1.8-5-5.6-5c-3.8,0-5.8,2.1-5.8,5v14.9h-8.6V8.7h8.6v3.6
		c1-1.5,4.1-4.3,9.3-4.3C132.2,8,136.3,11.5,136.3,17.3z"/>
	<path class="st0" d="M169.7,26c0,6.2-5.7,8.7-15.3,8.7c-10.2,0-15.2-3.1-15.2-8.9l9.1,0c0,2.9,3.1,3.6,6.7,3.6
		c3.9,0,5.8-0.7,5.8-2.5c0-2.3-4.3-2.4-9.8-3.2c-6.5-1-10.9-2.2-10.9-7.4c0-5.2,4.7-8.4,14-8.4c10.3,0,14.4,3.7,14.4,8.4l-8.7,0
		c0-1.7-2-3.2-5.8-3.2c-3.8,0-5.4,0.9-5.4,2.5c0,1.8,3.8,2.1,8.1,2.7C163,19.2,169.7,19.5,169.7,26z"/>
	<path class="st0" d="M202.4,8.7v23c0,10.2-9,11.2-16.2,11.3c-8.8,0-13.9-3.2-14.4-8.2h7.9c0.5,1.4,2.6,2.3,6.5,2.3
		c4.5,0,7.6-1,7.6-5.3v-2.1c-2.1,2-5.3,3-9.1,3c-7.4,0-13.4-4.6-13.4-12.1c0-8.6,6-12.5,13.4-12.5c3.8,0,7,1.6,9.1,4.1V8.7H202.4z
		 M194.7,20.5c0-3.9-2.5-6.6-7.7-6.6c-5.2,0-7.6,2.8-7.6,6.6c0,3.9,2.3,6.6,7.6,6.6C192.2,27.1,194.7,24.3,194.7,20.5z"/>
	<path class="st0" d="M235.5,8.7v25.4h-8.6v-3.6c-1,1.4-4.1,4.3-9.3,4.3c-6.5,0-10.6-3.5-10.6-9.3V8.7h8.6v14.9c0,2.8,1.8,5,5.6,5
		c3.8,0,5.8-2.1,5.8-5V8.7H235.5z"/>
	<path class="st0" d="M270,0.7v33.4h-8.6v-3.4c-2.1,2.5-5.2,4.1-9.1,4.1c-7.4,0-13.4-4.8-13.4-13.4S244.9,8,252.4,8
		c3.8,0,6.9,1.6,9.1,4.1V0.7H270z M262.3,21.4c0-4.1-2.5-7.5-7.7-7.5c-5.2,0-7.5,3.4-7.5,7.5c0,4.1,2.3,7.5,7.5,7.5
		C259.8,28.9,262.3,25.5,262.3,21.4z"/>
</g>
</svg>
